<?xml version="1.0" encoding="UTF-8"?>
<!-- Uploaded to: SVG Find, www.svgrepo.com, Generator: SVG Find Mixer Tools -->
<svg fill="#000000" width="800px" height="800px" version="1.1" viewBox="144 144 512 512" xmlns="http://www.w3.org/2000/svg">
 <g>
  <path d="m585 456.69c-9.6211-9.3906-21.176-16.57-33.855-21.039v-206.95h-80.609v24.184c0 9.6211-3.8203 18.848-10.625 25.648-6.8008 6.8047-16.027 10.625-25.648 10.625h-68.52c-9.6211 0-18.848-3.8203-25.648-10.625-6.8047-6.8008-10.625-16.027-10.625-25.648v-24.184h-80.609v362.74h215.63c24.336 19.445 56.961 25.012 86.363 14.738 29.406-10.273 51.465-34.945 58.398-65.312 6.9336-30.367-2.2344-62.168-24.27-84.184zm-265.61 13.844c-8.0195 0-15.707-3.1836-21.375-8.8516-5.6719-5.6719-8.8555-13.359-8.8555-21.375 0-8.0195 3.1836-15.707 8.8555-21.375 5.668-5.6719 13.355-8.8555 21.375-8.8555 8.0156 0 15.703 3.1836 21.375 8.8555 5.668 5.668 8.8516 13.355 8.8516 21.375 0 8.0156-3.1836 15.703-8.8516 21.375-5.6719 5.668-13.359 8.8516-21.375 8.8516zm0-100.76c-8.0195 0-15.707-3.1836-21.375-8.8516-5.6719-5.6719-8.8555-13.359-8.8555-21.375 0-8.0195 3.1836-15.707 8.8555-21.375 5.668-5.6719 13.355-8.8555 21.375-8.8555 8.0156 0 15.703 3.1836 21.375 8.8555 5.668 5.668 8.8516 13.355 8.8516 21.375 0 8.0156-3.1836 15.703-8.8516 21.375-5.6719 5.668-13.359 8.8516-21.375 8.8516zm60.457-40.305h100.76c5.5625 0 10.074 4.5117 10.074 10.078 0 5.5625-4.5117 10.074-10.074 10.074h-100.76c-5.5664 0-10.078-4.5117-10.078-10.074 0-5.5664 4.5117-10.078 10.078-10.078zm-10.078 110.84c0-5.5664 4.5117-10.078 10.078-10.078h70.531c5.5664 0 10.078 4.5117 10.078 10.078 0 5.5625-4.5117 10.074-10.078 10.074h-70.531c-5.5664 0-10.078-4.5117-10.078-10.074zm201.1 130.46c-12.879 12.324-29.855 19.449-47.672 20.012-17.816 0.5625-35.211-5.4805-48.84-16.969-14.402-12.703-23.004-30.73-23.816-49.922-0.80859-19.188 6.2383-37.879 19.52-51.75 13.281-13.875 31.645-21.734 50.852-21.762 5.9531-0.058594 11.891 0.71484 17.633 2.2969 15.16 3.8516 28.602 12.656 38.188 25.02 9.582 12.363 14.762 27.574 14.711 43.219-0.003906 18.684-7.4023 36.605-20.574 49.855z"/>
  <path d="m568.35 493.62c-1.8906-1.8945-4.457-2.957-7.1328-2.957-2.6797 0-5.2461 1.0625-7.1367 2.957l-50.562 50.582-13.906-27.809h0.003907c-2.5195-4.9297-8.5391-6.9023-13.488-4.4258-4.9492 2.4805-6.9688 8.4883-4.5273 13.453l20.152 40.305c1.4492 2.8906 4.2031 4.9062 7.3945 5.4219 0.53125 0.097656 1.0703 0.14453 1.6133 0.14062 2.6719 0.003906 5.2383-1.0547 7.1328-2.9414l60.457-60.457c1.8945-1.8906 2.9609-4.457 2.9609-7.1328 0-2.6797-1.0664-5.2461-2.9609-7.1367z"/>
  <path d="m329.46 440.3c0 5.5625-4.5117 10.074-10.074 10.074-5.5664 0-10.078-4.5117-10.078-10.074 0-5.5664 4.5117-10.078 10.078-10.078 5.5625 0 10.074 4.5117 10.074 10.078"/>
  <path d="m329.46 339.54c0 5.5625-4.5117 10.074-10.074 10.074-5.5664 0-10.078-4.5117-10.078-10.074 0-5.5664 4.5117-10.078 10.078-10.078 5.5625 0 10.074 4.5117 10.074 10.078"/>
  <path d="m365.68 208.55h68.641c8.8711 0 16.062 8.8711 16.062 16.062v28.336c0 8.8711-7.1914 16.062-16.062 16.062h-68.641c-8.8711 0-16.062-8.8711-16.062-16.062v-28.336c0-8.8711 7.1914-16.062 16.062-16.062z"/>
 </g>
</svg>